# xmcd
#
# Track frame offsets:
#	150
#	20551
#	38634
#	54818
#	85004
#	105412
#	126240
#	148547
#	163699
#	189785
#	214973
#	238548
#	256610
#	276862
#	304649
#
# Disc length: 4453 seconds
#
# Revision: 1
# Processed by: cddbd v1.5.2PL0 Copyright (c) Steve Scherf et al.
# Submitted via: audiograbber 1.83.01
#
DISCID=bb11630f
DTITLE=Dein Schatten - Das ewige Eis
DYEAR=2007
DGENRE=Rock
TTITLE0=Woanders sein (Clubmix)
TTITLE1=Dein Schatten
TTITLE2=Schuld und Sünde
TTITLE3=Er kommt zurück
TTITLE4=Das Tier
TTITLE5=Ewiges Eis
TTITLE6=Free
TTITLE7=My name is Luc(if)a
TTITLE8=Tränen der Seele
TTITLE9=Geister in mir
TTITLE10=Abschied
TTITLE11=Respekt!
TTITLE12=Woanders sein (Radioedit)
TTITLE13=Hallo?
TTITLE14=Daten-CD
EXTD=
EXTT0=
EXTT1=
EXTT2=
EXTT3=
EXTT4=
EXTT5=
EXTT6=
EXTT7=
EXTT8=
EXTT9=
EXTT10=
EXTT11=
EXTT12=
EXTT13=
EXTT14=
PLAYORDER=
